<?xml version="1.0" standalone="no"?>
<!DOCTYPE svg PUBLIC "-//W3C//DTD SVG 20010904//EN"
 "http://www.w3.org/TR/2001/REC-SVG-20010904/DTD/svg10.dtd">
<svg version="1.0" xmlns="http://www.w3.org/2000/svg"
 width="256.000000pt" height="256.000000pt" viewBox="0 0 256.000000 256.000000"
 preserveAspectRatio="xMidYMid meet">
<metadata>
Created by potrace 1.13, written by Peter Selinger 2001-2015
</metadata>
<g transform="translate(0.000000,256.000000) scale(0.100000,-0.100000)"
fill="#000000" stroke="none">
<path d="M0 1280 l0 -1280 1280 0 1280 0 0 1280 0 1280 -1280 0 -1280 0 0
-1280z m394 533 c-25 -43 -50 -86 -56 -97 -9 -16 -18 -6 -64 74 -30 51 -54 94
-54 96 0 2 49 4 110 4 l110 0 -46 -77z m459 -19 l-56 -95 -24 43 c-14 24 -38
67 -55 96 l-29 52 110 0 110 0 -56 -96z m297 90 c0 -3 -22 -44 -50 -91 -27
-47 -50 -87 -50 -89 0 -2 44 -3 98 -2 l97 2 -88 3 c-49 2 -87 7 -85 11 23 54
84 150 91 143 13 -13 87 -142 87 -152 0 -5 9 -9 20 -9 11 0 20 5 20 10 0 6 22
49 49 95 l48 85 47 -82 c25 -45 46 -85 46 -90 0 -4 -42 -9 -92 -11 l-93 -3
110 -1 110 -1 50 89 c28 49 52 89 55 89 7 0 100 -158 100 -171 0 -5 5 -9 10
-9 20 0 9 -28 -50 -124 -33 -54 -60 -100 -60 -102 0 -2 -27 -50 -60 -106 -34
-56 -57 -104 -52 -107 14 -9 103 -162 98 -169 -2 -4 -47 -6 -99 -4 l-95 3 44
76 c25 41 43 77 41 79 -5 5 -24 -28 -182 -301 -54 -93 -111 -191 -126 -217
l-29 -48 102 0 c73 0 99 3 91 11 -6 6 -41 9 -87 7 -42 -2 -76 1 -76 5 0 11 82
147 89 147 3 0 17 -21 31 -46 13 -26 37 -66 52 -90 l28 -44 111 0 c61 0 109
-3 107 -8 -1 -4 -25 -47 -53 -95 l-50 -87 -232 0 -232 0 49 83 c27 45 50 89
52 97 2 12 -17 16 -112 20 l-114 5 -113 194 c-62 107 -113 199 -113 205 0 6
24 52 53 101 l53 90 112 3 c62 1 112 -1 112 -5 0 -5 -22 -46 -50 -93 -27 -47
-50 -88 -50 -92 0 -5 52 -8 115 -8 63 0 115 2 115 5 0 3 -27 50 -60 106 -33
55 -60 103 -60 106 0 2 -22 42 -50 89 -27 47 -50 87 -50 89 0 3 50 5 110 5 61
0 110 4 110 9 0 9 -205 367 -222 389 -8 9 14 12 106 12 64 0 116 -3 116 -6z
m884 -86 c-29 -51 -54 -96 -54 -100 0 -5 50 -8 110 -8 61 0 110 -2 110 -4 0
-2 -50 -91 -111 -196 -65 -111 -115 -188 -120 -183 -5 5 -33 49 -62 98 l-52
90 57 95 57 95 -36 65 c-52 93 -73 126 -73 116 0 -5 18 -41 39 -80 22 -39 40
-75 40 -79 1 -10 -178 -12 -181 -3 -2 3 20 46 47 96 l50 90 117 0 117 0 -55
-92z m268 60 c-10 -18 -36 -61 -57 -96 l-37 -63 -45 78 c-24 43 -49 82 -54 88
-21 21 -4 25 102 25 l111 0 -20 -32z m-508 -268 c25 -43 46 -84 46 -90 0 -6
-36 -10 -95 -10 -52 0 -95 2 -95 5 0 5 94 175 97 175 1 0 22 -36 47 -80z
m-114 -207 c25 -42 47 -81 48 -85 2 -4 -42 -8 -98 -8 -56 0 -100 3 -98 8 11
25 94 162 98 162 3 0 25 -35 50 -77z m280 -109 c0 -10 -334 -584 -340 -584 -3
0 -18 24 -34 53 -16 28 -42 71 -57 94 l-28 43 116 200 116 200 113 0 c63 0
114 -3 114 -6z m-516 -297 c25 -43 46 -83 46 -88 0 -5 -43 -9 -95 -9 -52 0
-95 4 -95 9 0 10 92 173 95 169 2 -2 24 -38 49 -81z m-114 -617 l51 -90 -53
-95 c-29 -52 -55 -95 -58 -95 -7 0 -110 179 -110 190 0 16 105 188 112 184 4
-2 30 -45 58 -94z"/>
<path d="M1573 1703 c26 -2 68 -2 95 0 26 2 4 3 -48 3 -52 0 -74 -1 -47 -3z"/>
<path d="M1247 1658 c-46 -73 -87 -151 -87 -164 0 -12 18 -15 108 -13 59 1
110 3 114 5 9 5 -97 187 -111 192 -5 2 -16 -7 -24 -20z"/>
<path d="M1211 1190 c-28 -49 -51 -94 -51 -100 0 -6 43 -10 111 -10 83 0 110
3 107 13 -5 20 -103 187 -109 187 -4 0 -30 -40 -58 -90z"/>
</g>
</svg>
