<?xml version="1.0" standalone="no"?>
<!DOCTYPE svg PUBLIC "-//W3C//DTD SVG 20010904//EN"
 "http://www.w3.org/TR/2001/REC-SVG-20010904/DTD/svg10.dtd">
<svg version="1.0" xmlns="http://www.w3.org/2000/svg"
 width="64.000000pt" height="64.000000pt" viewBox="0 0 64.000000 64.000000"
 preserveAspectRatio="xMidYMid meet">
<metadata>
Created by potrace 1.13, written by Peter Selinger 2001-2015
</metadata>
<g transform="translate(0.000000,64.000000) scale(0.100000,-0.100000)"
fill="#000000" stroke="none">
<path d="M2 538 c1 -57 3 -84 5 -61 4 36 8 43 35 52 26 9 35 8 50 -5 17 -16
18 -16 18 0 0 29 37 92 62 103 19 10 5 12 -74 12 l-98 1 2 -102z"/>
<path d="M477 633 c36 -4 43 -8 52 -35 9 -26 8 -35 -5 -50 -16 -17 -16 -18 0
-18 29 0 92 -37 103 -62 10 -19 12 -5 12 75 l1 97 -102 -2 c-57 -1 -84 -3 -61
-5z"/>
<path d="M170 535 c-19 -19 -40 -35 -47 -35 -8 0 -3 -14 13 -37 24 -36 25 -42
18 -138 -3 -55 -11 -106 -16 -112 -23 -29 -48 -8 -48 40 0 18 -2 19 -10 7 -18
-28 -10 -56 25 -90 19 -19 35 -40 35 -47 0 -8 14 -3 37 13 36 24 42 25 138 18
55 -3 106 -11 113 -16 28 -23 7 -48 -41 -48 -18 0 -19 -2 -7 -10 28 -18 56
-10 90 25 19 19 40 35 47 35 8 0 3 14 -13 37 -24 36 -25 42 -18 138 3 55 11
106 16 113 23 28 48 7 48 -41 0 -18 2 -19 10 -7 18 28 10 56 -25 90 -19 19
-35 40 -35 47 0 8 -14 3 -37 -13 -36 -24 -42 -25 -138 -18 -55 3 -106 11 -112
16 -29 23 -8 48 40 48 18 0 19 2 7 10 -28 18 -56 10 -90 -25z m290 -215 l0
-140 -140 0 -140 0 0 140 0 140 140 0 140 0 0 -140z"/>
<path d="M245 390 c-16 -7 -17 -9 -3 -9 9 -1 20 4 23 9 7 11 7 11 -20 0z"/>
<path d="M285 389 c-4 -6 -5 -12 -2 -15 2 -3 7 2 10 11 7 17 1 20 -8 4z"/>
<path d="M310 380 c0 -5 16 -10 36 -10 l36 0 -21 -32 c-11 -18 -24 -32 -28
-32 -5 1 -18 5 -30 9 -18 5 -23 2 -23 -10 0 -13 6 -16 26 -11 22 6 25 4 19
-14 -4 -13 -1 -22 9 -26 31 -12 16 -27 -21 -21 -21 3 -33 3 -26 0 7 -2 10 -10
7 -18 -3 -7 0 -16 7 -21 9 -5 10 -2 6 9 -5 13 -1 17 14 17 15 0 19 -5 15 -16
-3 -8 -2 -13 3 -10 14 9 23 58 12 69 -11 11 3 47 24 59 10 6 12 25 6 61 -2 11
-71 8 -71 -3z"/>
<path d="M400 372 c0 -4 10 -9 22 -9 18 -2 20 0 8 7 -18 12 -30 13 -30 2z"/>
<path d="M293 350 c-32 -13 -29 -17 7 -12 17 2 30 8 30 13 0 11 -8 11 -37 -1z"/>
<path d="M386 305 c-3 -8 -1 -15 4 -15 6 0 10 7 10 15 0 8 -2 15 -4 15 -2 0
-6 -7 -10 -15z"/>
<path d="M240 301 c0 -5 6 -14 14 -20 12 -10 13 -8 9 8 -5 21 -23 30 -23 12z"/>
<path d="M630 161 c0 -35 -3 -40 -32 -50 -26 -9 -35 -8 -50 5 -17 16 -18 16
-18 0 0 -29 -37 -92 -62 -103 -19 -10 -5 -12 75 -12 l97 -1 0 100 c0 55 -2
100 -5 100 -3 0 -5 -18 -5 -39z"/>
<path d="M1 98 l-1 -98 103 2 c56 1 83 3 60 5 -36 4 -43 8 -52 35 -9 26 -8 35
5 50 16 17 16 18 0 18 -29 0 -92 37 -103 62 -10 19 -12 5 -12 -74z"/>
</g>
</svg>
