<?xml version="1.0" standalone="no"?>
<!DOCTYPE svg PUBLIC "-//W3C//DTD SVG 20010904//EN"
 "http://www.w3.org/TR/2001/REC-SVG-20010904/DTD/svg10.dtd">
<svg version="1.0" xmlns="http://www.w3.org/2000/svg"
 width="16.000000pt" height="16.000000pt" viewBox="0 0 16.000000 16.000000"
 preserveAspectRatio="xMidYMid meet">
<metadata>
Created by potrace 1.13, written by Peter Selinger 2001-2015
</metadata>
<g transform="translate(0.000000,16.000000) scale(0.100000,-0.100000)"
fill="#000000" stroke="none">
<path d="M22 138 c-16 -16 -16 -100 0 -116 16 -16 100 -16 116 0 16 16 16 100
0 116 -16 16 -100 16 -116 0z m85 -24 c3 -8 1 -20 -6 -27 -6 -6 -11 -21 -11
-34 0 -13 -4 -23 -10 -23 -14 0 -12 54 2 68 8 8 9 12 1 12 -6 0 -13 -6 -16
-12 -2 -7 -8 -10 -12 -6 -4 4 -5 14 -2 23 8 20 46 20 54 -1z"/>
</g>
</svg>
